<svg width="1677" height="1823" viewBox="0 0 1677 1823" fill="none" xmlns="http://www.w3.org/2000/svg">
<g clip-path="url(#clip0_917_77)">
<path fill-rule="evenodd" clip-rule="evenodd" d="M843 1542C1152.28 1542 1403 1291.28 1403 982C1403 672.721 1152.28 422 843 422C533.721 422 283 672.721 283 982C283 1291.28 533.721 1542 843 1542ZM843 1470C1112.51 1470 1331 1251.51 1331 982C1331 712.485 1112.51 494 843 494C573.485 494 355 712.485 355 982C355 1251.51 573.485 1470 843 1470Z" fill="#FF5658"/>
<path fill-rule="evenodd" clip-rule="evenodd" d="M838 1668C1219.08 1668 1528 1359.08 1528 978C1528 596.924 1219.08 288 838 288C456.924 288 148 596.924 148 978C148 1359.08 456.924 1668 838 1668ZM838 1590C1176 1590 1450 1316 1450 978C1450 640.002 1176 366 838 366C500.002 366 226 640.002 226 978C226 1316 500.002 1590 838 1590Z" fill="#FF5658"/>
<path d="M731 243.5L463 266.5L824.5 70.5L834.5 188L1162.5 168L867.5 333L805 243.5L753 344L731 243.5Z" fill="#E4CC72"/>
<path d="M212 924L64.5 638.5L312.5 714.5L600 735L809.5 247.5L1073 735L1626 656.5L1372 985.5L1241 1150L1382.5 1400L1420.5 1690.5L1154 1514L845 1343L478.5 1514L212 1690.5L255 1400L364 1138.5L212 924Z" fill="#E4CC72"/>
<path d="M367.5 1132L161 848C161 848 529.5 1219 775.5 1228C1021.5 1237 1296.5 1018 1436.5 924L1239 1150L1380.5 1400L1426 1688.5L1152 1514L843 1343L476.5 1514L210 1690.5L253 1400L367.5 1132Z" fill="#CFBB65"/>
<path d="M387 375.5L407.5 338.5L442.5 350L624.5 683.5L605 753L505 728.5L407.5 401.5L387 375.5Z" fill="#A2A2A2"/>
<path d="M451 357C451 373.016 434.845 384.5 418 384.5C401.155 384.5 391 384.016 391 368C391 351.984 404.655 339 421.5 339C438.345 339 451 340.984 451 357Z" fill="#FF5658"/>
<path d="M505.5 484.5C491 489 428 544.5 428 544.5L438.5 595.5L553.5 547.5C553.5 547.5 590.245 506.4 576 484.5C560.988 461.421 520 480 505.5 484.5Z" fill="#FF5658"/>
<path d="M1198.5 335V376L1028.5 643L1057 729L1142 722L1231.5 400.5L1261.5 376L1242 335H1198.5Z" fill="#A2A2A2"/>
<path d="M1088 468C1101.29 459.921 1132.57 487.76 1160.5 506C1180.9 519.325 1201.46 523.809 1213.5 545C1219.78 556.061 1225.63 563.46 1223.5 576C1219.05 602.126 1156 583 1156 583L1065 500.5C1065 500.5 1074.71 476.079 1088 468Z" fill="#FF5658"/>
<ellipse cx="1224.5" cy="358.5" rx="37.5" ry="33.5" fill="#FF5658"/>
<path fill-rule="evenodd" clip-rule="evenodd" d="M1241.12 328.462C1217.17 375.56 1180.44 449.241 1156 505C1122.63 581.139 1080.21 696.833 1068.89 728.021L1061.5 728.629L1051.38 712.033L1028.5 643L1099.38 531.672L1065 500.5C1065 500.5 1074.71 476.079 1088 468C1096.42 462.879 1112.07 472.189 1129.52 484.339L1195.87 380.134C1190.34 374.298 1187 366.747 1187 358.5C1187 339.998 1203.79 325 1224.5 325C1230.47 325 1236.11 326.246 1241.12 328.462Z" fill="#414141" fill-opacity="0.4"/>
<path fill-rule="evenodd" clip-rule="evenodd" d="M411.984 339.887C432.921 397.242 466.155 484.644 493.5 540C502.857 558.942 513.376 583.223 524.165 608.128C552.419 673.348 582.529 742.852 598.5 732C603.558 728.563 608.549 722.998 613.405 715.915L622.5 683.5L548.878 548.594L551.5 547.5C551.5 547.5 588.245 506.4 574 484.5C561.385 465.107 530.429 475.128 512.26 481.494L448.002 363.747C448.651 361.61 449 359.354 449 357C449 340.984 436.345 339 419.5 339C416.906 339 414.388 339.308 411.984 339.887Z" fill="#414141" fill-opacity="0.4"/>
<path d="M718.341 376.931C726.449 360.407 728.643 344.241 725.266 327.258C721.479 308.219 726.852 289.367 726.85 270.365C726.848 258.396 722.759 254.354 711.052 254.97C665.939 257.343 621.089 262.448 576.235 267.454C539.423 271.563 502.643 276.023 465.934 280.957C451.143 282.945 436.578 286.611 422.004 289.495C418.162 278.473 425.743 276.083 430.857 272.593C471.483 244.867 515.27 222.776 559.093 200.721C643.304 158.34 726.648 114.299 809.425 69.1859C828.47 58.806 831.755 60.4175 834.503 81.4137C838.452 111.581 841.327 141.846 842.695 172.236C843.061 180.377 844.995 184.027 854.664 182.88C906.052 176.788 956.913 166.683 1008.6 162.87C1043.73 160.278 1078.85 158.153 1114.13 158.704C1133.13 159.001 1152.22 159.743 1171.14 156.33C1175.64 155.518 1181.31 154.946 1183.38 160.815C1185.27 166.158 1181.9 169.927 1177.79 172.776C1165.68 181.17 1153.95 190.105 1140.61 196.655C1064.11 234.197 987.06 270.645 912.712 312.43C883.514 328.84 883.341 328.566 898.693 358.24C938.052 434.316 971.683 513.213 1012.21 588.708C1016.42 596.542 1019.16 605.436 1028.26 612.803C1044.29 593.92 1060.28 575.287 1076.01 556.437C1080.41 551.169 1075.51 547.703 1072.4 544.345C1061.58 532.675 1052.57 519.927 1048.18 504.413C1044.88 492.761 1047.58 482.415 1056.93 474.752C1066.87 466.6 1079 465.069 1090.66 469.188C1099.85 472.431 1100.45 480.874 1092.24 485.306C1076.71 493.691 1082.04 501.435 1090.87 510.234C1116.61 535.873 1146.6 554.685 1181.04 566.262C1186.33 568.037 1192.02 569.702 1197.3 565.368C1198.73 558.522 1194.66 554.274 1189.94 551.133C1184.33 547.395 1183.07 542.042 1180.55 536.296C1174.6 522.684 1183.22 513.391 1186.6 502.091C1192.75 481.581 1198.84 461.09 1206.17 440.961C1214.15 419.055 1221.88 397.057 1229.62 375.064C1232.83 365.933 1237.25 354.618 1224.32 351.137C1213.08 348.112 1209.96 359.194 1205.33 367.942C1184.69 406.905 1172.02 449.991 1144.98 485.574C1139.75 492.455 1133.1 503.077 1123.51 497.364C1112.13 490.584 1122.23 481.572 1125.94 474.04C1140.28 444.958 1156.94 417.184 1173.94 389.61C1178.77 381.78 1181.34 374.443 1179.17 364.305C1174.38 341.832 1191.69 318.705 1213.23 316.112C1242.79 312.552 1266.58 330.585 1268.79 358.229C1270.62 381.139 1268 385.996 1246.61 396.826C1240.22 400.061 1238.21 405.098 1237.22 411.626C1233.67 435.118 1229.53 458.524 1226.09 482.031C1224.27 494.441 1219.79 505.937 1215.36 517.465C1212.42 525.143 1213.57 530.489 1220.46 535.892C1235.35 547.57 1240.94 563.016 1235.01 581.542C1229.21 599.658 1213.68 604.117 1197.67 604.7C1186.87 605.094 1182.92 608.423 1180.96 618.724C1176.99 639.672 1171.37 660.302 1166.84 681.152C1163.94 694.476 1167.43 697.471 1180.87 695.45C1235.82 687.188 1290.96 680.327 1345.99 672.795C1401.97 665.134 1458.04 657.929 1513.9 649.348C1550.48 643.728 1586.97 637.281 1624.06 635.816C1627.37 635.685 1630.74 635.672 1634.01 636.121C1651.88 638.573 1655.65 644.846 1647.86 661.17C1629.71 699.22 1604.43 732.82 1579.99 766.825C1541.92 819.799 1504.29 873.18 1463.98 924.428C1424.86 974.149 1386.14 1024.41 1341.16 1069.24C1317.86 1092.47 1289.37 1109.75 1267.01 1134.04C1263.2 1138.18 1258.22 1141.44 1256.13 1148.41C1279.27 1172.35 1300.6 1198.38 1318.02 1227.48C1380.39 1331.71 1424.11 1443.22 1448.83 1562.13C1456.89 1600.91 1461.08 1640.03 1454.9 1679.57C1448.59 1719.97 1411.31 1737.06 1375.88 1715.17C1352.38 1700.65 1330.65 1683.47 1309.21 1666.05C1252.92 1620.3 1190.92 1582.65 1131.92 1540.75C1043.77 1478.15 951.65 1421.6 860.684 1363.29C854.457 1359.3 849.19 1358.15 842.116 1360.55C758.504 1388.89 678.771 1425.86 599.874 1465.33C536.668 1496.95 478.273 1536.45 416.868 1570.97C352.192 1607.33 298.504 1658.75 245.212 1710C228.493 1726.08 205.124 1724.47 196.914 1706.71C192.98 1698.19 192.355 1688.43 191.907 1678.86C189.806 1633.95 195.264 1589.79 203.338 1545.7C219.291 1458.57 239.015 1372.44 271.982 1290.02C290.892 1242.74 312.549 1196.58 339.033 1152.91C353.812 1128.53 352.99 1120.25 333.068 1099.09C313.81 1078.64 292.933 1059.61 275.842 1037.25C198.563 936.115 123.919 833.238 70.783 716.678C60.3069 693.697 52.6438 669.646 47.8955 644.75C46.5625 637.76 43.3763 629.398 49.3523 624.513C55.8929 619.168 64.6898 621.456 72.4157 624.67C115.984 642.795 160.709 657.388 206.653 668.139C278.863 685.038 351.39 700.209 425.274 708.031C438.929 709.477 452.144 713.789 466.137 713.805C475.473 713.815 479.131 710.973 478.207 701.367C475.46 672.806 464.704 646.03 460.022 617.889C458.793 610.502 451.103 609.95 444.898 609.806C427.614 609.407 413.217 602.941 407.893 586.108C402.494 569.035 407.143 553.058 421.952 541.375C426.723 537.611 429.975 534.206 427.431 527.063C414.89 491.843 410.571 454.941 406.712 418.057C405.73 408.669 402.834 402.873 393.231 400.908C381.418 398.491 376.152 390.03 373.613 378.946C369.531 361.126 379.709 337.802 396.557 327.234C411.913 317.603 432.848 318.787 447.496 329.808C460.654 339.707 465.085 353.267 463.203 368.812C462.105 377.882 463.854 385.521 468.37 393.26C485.883 423.269 504.452 452.68 519.958 483.837C523.197 490.345 527.837 497.449 519.792 502.771C512.727 507.445 507.32 501.296 502.685 496.557C490.151 483.743 481.899 468.046 474.895 451.893C462.636 423.621 450.17 400.908 437.5 378.946C437.5 363.5 426.732 352.579 416.193 356.973C405.842 361.29 408.575 369.485 411.526 377.563C427.195 420.458 443.761 463.038 455.851 507.179C458.781 517.878 468.991 526.01 462.744 539.815C459.364 547.282 457.46 554.428 450.17 559.245C446.696 561.54 443.958 565.681 446.43 570.392C448.318 573.989 452.319 573.798 455.375 572.904C498.43 560.305 535.989 539.376 562.188 501.521C562.408 501.204 562.215 500.601 562.223 500.118C561.102 495.803 556.957 494.951 553.873 492.931C549.347 489.966 544.536 486.75 546.763 480.546C548.747 475.02 554.009 473.765 559.593 473.281C588.883 470.74 604.403 492.512 592.178 519.383C587.611 529.419 581.777 538.987 573.812 546.451C565.046 554.666 566.408 560.785 573.689 568.995C586.316 583.234 597.954 598.349 610.08 613.036C620.406 625.543 623.84 624.957 630.034 610.142C646.929 569.732 661.61 528.506 675.365 486.947C687.637 449.87 707.853 415.913 718.341 376.931ZM290.556 1350.63C283.709 1373.4 276.434 1396.06 270.094 1418.97C248.754 1496.1 239.933 1575.59 226.031 1654.12C225.402 1657.67 225.773 1660.88 229.278 1662.74C233.045 1664.74 235.605 1662.16 238.039 1659.91C246.772 1651.82 255.206 1643.4 264.156 1635.56C365.158 1547.14 477.001 1475.36 598.131 1417.75C673.131 1382.09 750.418 1352.77 831.185 1333.13C841.961 1330.51 853.154 1324.93 864.547 1330.23C882.665 1338.67 900.658 1347.4 918.418 1356.57C979.413 1388.04 1037.23 1424.94 1095.83 1460.53C1181.78 1512.72 1265.31 1568.41 1345.3 1629.38C1360.44 1640.91 1376.11 1651.77 1391.74 1662.65C1398.49 1667.35 1406.2 1671.72 1414.1 1665.96C1421.03 1660.9 1418.33 1652.96 1417.27 1646.04C1416.04 1638.05 1414 1630.2 1412.8 1622.21C1396.26 1512.65 1360.98 1408.97 1314.22 1308.94C1291.01 1259.26 1265.19 1211.1 1231.68 1167.31C1220.24 1152.36 1216.59 1143.84 1236.24 1130.97C1240.42 1128.24 1243.21 1123.27 1246.38 1119.13C1271.27 1086.64 1293.52 1052.1 1321.76 1022.21C1423.02 915.049 1510.8 796.796 1601.81 681.205C1605.13 676.986 1610.01 673.085 1609.4 666.664C1605.33 663.305 1601.2 665.093 1596.99 665.545C1558.25 669.714 1520.05 677.376 1481.58 683.184C1351.06 702.887 1222.56 733.974 1091.58 751.024C1053.22 756.016 1050.29 756.333 1031.96 721.728C1031.29 720.466 1030.64 719.195 1030.01 717.912C993.458 643.567 956.558 569.392 920.475 494.822C888.543 428.829 857.355 362.478 822.125 298.141C822.125 298.141 818.784 289.031 812.764 287.963C801.663 296.117 799.633 309.576 794.06 320.857C748.698 412.679 706.448 505.774 673.433 602.961C656.319 653.338 635.937 702.609 616.804 752.292C614.378 758.591 612.94 767.74 603.176 765.899C590.857 763.577 578.449 764.81 566.179 763.381C503.022 756.024 439.764 749.459 377.118 738.204C296.069 723.642 215.747 706.308 138.692 676.421C121.206 669.638 104.024 662.069 83.9369 653.712C88.5625 665.276 91.7391 674.143 95.5932 682.705C124.682 747.327 164.292 805.591 204.564 863.511C249.675 928.39 299.975 989.66 339.763 1058.25C352.655 1080.48 365.711 1102.68 380.202 1123.86C385.696 1131.89 386.309 1137.1 381.625 1145.25C344.482 1209.85 315.113 1277.95 290.556 1350.63ZM515.882 253.233C534.69 250.635 553.51 248.125 572.303 245.421C623.57 238.046 674.767 229.974 726.777 230.172C747.093 230.249 747.105 230.889 747.873 250.74C748.401 264.381 744.861 278.624 752.073 293.605C756.254 286.165 759.579 280.453 762.711 274.636C771.561 258.206 781.26 242.359 796.05 230.509C808.273 220.716 813.701 221.478 823.196 233.682C839 253.994 854.407 274.64 865.42 298.033C870.672 309.188 876.213 311.01 887.306 304.446C951.299 266.58 1018.76 235.478 1085.89 203.717C1102.68 195.771 1120.18 188.622 1135.24 175.901C1133.14 174.993 1132.31 174.319 1131.48 174.32C1067.65 174.378 1004.41 182.873 940.909 187.683C907.241 190.233 873.542 192.376 839.861 194.747C831.279 195.352 826.92 192.61 826.463 182.888C825.66 165.798 823.931 148.773 823.602 131.615C823.306 116.14 821.223 100.699 819.86 84.4362C809.615 86.123 802.546 90.9789 795.228 95.1199C765.813 111.765 736.39 128.396 707.093 145.248C646.829 179.911 585.017 211.704 523.805 244.614C520.284 246.507 513.478 246.057 515.882 253.233ZM588.637 719.503C593.421 707.073 597.671 694.403 603.133 682.279C609.098 669.037 609.339 658.763 595.268 649.876C588.376 645.523 583.763 637.328 578.608 630.503C567.703 616.064 557.209 601.315 546.352 586.839C542.911 582.251 539.261 577.459 532.254 581.935C520.122 589.685 506.436 594.127 493.152 599.28C483.151 603.159 480.15 609.627 482.899 619.401C491.257 649.113 499.743 678.79 508.058 708.515C509.979 715.383 514.1 718.784 521.284 719.225C529.338 719.719 537.419 721.896 545.373 721.421C559.379 720.586 573.394 726.332 588.637 719.503ZM1070.93 707.669C1089.56 708.229 1107.6 703.249 1126.01 701.73C1133.27 701.131 1136.55 696.093 1138.36 689.696C1145.69 663.664 1153.09 637.648 1160.35 611.594C1162.43 604.137 1160.02 598.818 1152.62 595.498C1138.76 589.283 1124.96 582.899 1111.39 576.082C1104.82 572.779 1101.15 574.764 1097.23 580.312C1084.61 598.161 1072.96 616.99 1058.25 632.966C1046.36 645.873 1044.25 657.596 1052.18 672.108C1058.41 683.523 1056.96 698.512 1070.93 707.669Z" fill="black"/>
<path d="M705.5 972.5C701.024 951.466 702.798 936.697 717.498 921C720.901 917.366 726.998 912.5 726.998 912.5L786.998 988.5L896.499 978.5L947.499 926C947.499 926 975.499 921.5 975.499 935C975.499 948.5 978.982 971.814 938.998 1024.5C909.78 1063 825.5 1065.5 792.501 1055.5C750.332 1042.72 715.502 1019.5 705.5 972.5Z" fill="#CDBC64"/>
<path d="M749.5 958L726.5 898H962.5L933.5 958L842.5 991L749.5 958Z" fill="#FF5658" stroke="black"/>
<path d="M842.795 932C809.637 932 749.292 934.5 754.292 962C758.43 984.758 800.795 993.5 800.795 993.5H877.795C877.795 993.5 919.795 978.426 919.795 954C919.795 932 882.795 932 842.795 932H842.795Z" fill="#B13333"/>
<ellipse cx="608" cy="823" rx="21" ry="24" fill="white"/>
<path d="M970.982 922.06C951.18 973.165 890.896 1009.53 837.245 1004.77C796.517 1001.15 760.164 988.881 732.747 956.842C720.956 943.063 715.013 926.597 712.799 908.842C711.101 895.233 717.421 888.379 731.052 887.877C783.255 885.954 835.491 884.64 887.64 881.762C905.653 880.768 923.62 879.119 941.687 879.246C969.19 879.439 975.572 886.76 971.807 913.802C971.48 916.154 971.41 918.541 970.982 922.06ZM789.964 962.349C851.723 988.529 932.416 959.785 941.407 906.507C874 913.802 808 911.5 742.809 909.52C740.608 921.794 746.171 929.513 752.316 935.734C762.659 946.204 774.606 954.984 789.964 962.349Z" fill="black"/>
<ellipse cx="1035.5" cy="823.5" rx="20.5" ry="23.5" fill="white"/>
<path d="M585.358 850.095C576.617 834.759 575.106 820.007 585.586 806.401C595.719 793.245 610.276 789.072 626.354 791.316C644.13 793.796 656.022 804.085 659.291 818.649C663.356 836.757 655.927 855.482 641.037 864.658C627.097 873.248 609.713 872.087 595.803 861.204C592.121 858.324 589.241 854.42 585.358 850.095ZM615.542 804.872C608.884 799.275 602.302 799.898 597.083 806.392C592.352 812.28 593.026 818.707 598.59 824.099C603.228 828.592 608.734 829.302 614.007 825.69C621.594 820.494 622.567 813.818 615.542 804.872Z" fill="black"/>
<path d="M1018.88 860.766C1005.05 844.447 1002.85 826.357 1012.13 811.66C1020 799.176 1040.92 792.721 1058.33 797.404C1077.21 802.484 1087.17 820.032 1082.31 839.656C1077.42 859.44 1057.19 873.023 1038.01 869.011C1031.55 867.659 1025.04 865.896 1018.88 860.766ZM1037.52 831.72C1043.44 827.068 1046.34 821.34 1041.47 814.614C1037.77 809.503 1032.66 805.483 1025.69 808.851C1019.6 811.793 1015.76 816.762 1017.82 823.76C1020.44 832.663 1027.03 835.103 1037.52 831.72Z" fill="black"/>
</g>
<defs>
<clipPath id="clip0_917_77">
<rect width="1677" height="1823" fill="white"/>
</clipPath>
</defs>
</svg>
